<?xml version="1.0" encoding="UTF-8" standalone="no"?>
<!-- Created with Inkscape (http://www.inkscape.org/) -->

<svg
   width="168.73955mm"
   height="97.174683mm"
   viewBox="0 0 168.73956 97.174681"
   version="1.1"
   id="svg2446"
   inkscape:version="1.2.2 (b0a8486541, 2022-12-01)"
   sodipodi:docname="panimacs.svg"
   xml:space="preserve"
   xmlns:inkscape="http://www.inkscape.org/namespaces/inkscape"
   xmlns:sodipodi="http://sodipodi.sourceforge.net/DTD/sodipodi-0.dtd"
   xmlns="http://www.w3.org/2000/svg"
   xmlns:svg="http://www.w3.org/2000/svg"><sodipodi:namedview
     id="namedview2448"
     pagecolor="#ffffff"
     bordercolor="#000000"
     borderopacity="0.25"
     inkscape:showpageshadow="2"
     inkscape:pageopacity="0.0"
     inkscape:pagecheckerboard="0"
     inkscape:deskcolor="#d1d1d1"
     inkscape:document-units="mm"
     showgrid="false"
     inkscape:zoom="8"
     inkscape:cx="481.75"
     inkscape:cy="149.1875"
     inkscape:window-width="1278"
     inkscape:window-height="1400"
     inkscape:window-x="18"
     inkscape:window-y="18"
     inkscape:window-maximized="1"
     inkscape:current-layer="layer1" /><defs
     id="defs2443" /><g
     inkscape:label="Layer 1"
     inkscape:groupmode="layer"
     id="layer1"
     transform="translate(30.082992,-103.6202)"><path
       style="fill:none;fill-opacity:1;stroke:#ff708a;stroke-width:3.70159;stroke-linecap:butt;stroke-linejoin:bevel;stroke-dasharray:none;stroke-opacity:1"
       d="m 7.0239951,161.8752 c 0,0 11.3383279,18.47454 11.3383279,-41.47115"
       id="path646" /><path
       style="fill:none;fill-opacity:1;stroke:#fc6d86;stroke-width:3.70159;stroke-linecap:square;stroke-linejoin:bevel;stroke-dasharray:none;stroke-opacity:1"
       d="m 32.806953,105.87518 v 92.68636"
       id="path648"
       sodipodi:nodetypes="cc" /><path
       style="fill:none;fill-opacity:1;stroke:#ff708a;stroke-width:3.70159;stroke-linecap:butt;stroke-linejoin:bevel;stroke-dasharray:none;stroke-opacity:1"
       d="m 25.164727,120.40405 c 0,0 -53.050507,12.06768 -53.050507,-0.21949 0,-6.03279 147.67405,-5.10901 147.67405,-5.10901"
       id="path650"
       sodipodi:nodetypes="csc" /><path
       d="m 56.998361,166.39528 -0.744828,-3.52103 h -0.180564 q -1.850779,2.3248 -3.701551,3.15991 -1.82821,0.81257 -4.5818,0.81257 -3.678981,0 -5.778032,-1.89596 -2.076481,-1.89596 -2.076481,-5.39435 0,-7.4934 11.984901,-7.85447 l 4.198101,-0.13579 v -1.53483 q 0,-2.91157 -1.263941,-4.28836 -1.241377,-1.39934 -3.994973,-1.39934 -3.092144,0 -6.996834,1.8959 l -1.151089,-2.86644 q 1.828203,-0.99313 3.994967,-1.55736 2.189332,-0.56423 4.378665,-0.56423 4.423804,0 6.545423,1.96368 2.144195,1.96362 2.144195,6.29711 v 16.8827 z m -8.463915,-2.64075 q 3.498417,0 5.484616,-1.91849 2.008768,-1.91849 2.008768,-5.37181 v -2.23443 l -3.746695,0.15803 q -4.468942,0.15803 -6.455146,1.39939 -1.963624,1.21882 -1.963624,3.81439 0,2.03133 1.218802,3.09213 1.241377,1.06085 3.453279,1.06085 z"
       style="font-weight:normal;font-size:46.4008px;line-height:0;font-family:'Open Sans';-inkscape-font-specification:'Open Sans';text-align:center;letter-spacing:-2.17505px;text-anchor:middle;fill:#c8a9ff;stroke:none;stroke-width:3.70159;stroke-linejoin:bevel"
       id="path652" /><path
       d="m 82.254661,166.39528 v -16.00241 q 0,-3.02447 -1.376792,-4.51411 -1.376798,-1.48965 -4.310958,-1.48965 -3.882116,0 -5.68775,2.09906 -1.805629,2.09905 -1.805629,6.92911 v 12.978 h -3.746695 v -24.73723 h 3.047006 l 0.609407,3.3856 h 0.180565 q 1.151095,-1.82818 3.227576,-2.82131 2.076481,-1.01567 4.626937,-1.01567 4.468948,0 6.725994,2.16677 2.257046,2.14419 2.257046,6.88399 v 16.13785 z"
       style="font-weight:normal;font-size:46.4008px;line-height:0;font-family:'Open Sans';-inkscape-font-specification:'Open Sans';text-align:center;letter-spacing:-2.17505px;text-anchor:middle;fill:#89b4fa;fill-opacity:1;stroke:none;stroke-width:3.70159;stroke-linejoin:bevel"
       id="path654" /><path
       style="font-weight:normal;font-size:46.4008px;line-height:0;font-family:'Open Sans';-inkscape-font-specification:'Open Sans';text-align:center;letter-spacing:-2.17505px;text-anchor:middle;fill:#caff8e;fill-opacity:1;stroke:none;stroke-width:3.70159;stroke-linejoin:bevel"
       d="M 95.277788,166.39528 H 91.531099 V 141.65805 H 95.2778 Z"
       id="path656" /><g
       id="g664"
       transform="matrix(16.378692,0,0,16.378692,-394.78618,-2023.6868)"
       style="stroke:#ff708a;stroke-opacity:1"><path
         style="fill:none;fill-opacity:1;stroke:#ff708a;stroke-width:0.226;stroke-linejoin:bevel;stroke-dasharray:none;stroke-opacity:1"
         d="m 31.334031,132.05882 c 0,0 -0.07505,-0.2509 -0.39267,-0.2509 -0.317624,0 -0.417765,0.27441 -0.417765,0.41736 0,0.14295 0.07916,0.51529 0.78224,0.51529 0,0 -1.653614,0.33737 -1.656253,1.63952 -0.0027,1.30217 1.916464,1.90627 2.550435,0.4674"
         id="path660"
         sodipodi:nodetypes="cssczc" /><circle
         style="fill:none;fill-opacity:1;stroke:#ff708a;stroke-width:0.113;stroke-linejoin:bevel;stroke-dasharray:none;stroke-opacity:1"
         id="circle662"
         cx="32.268845"
         cy="134.6347"
         r="0.23123048" /></g><path
       id="path1692"
       style="font-weight:normal;font-size:46.4008px;line-height:0;font-family:'Open Sans';-inkscape-font-specification:'Open Sans';text-align:center;letter-spacing:-2.17505px;text-anchor:middle;fill:#ffcd83;fill-opacity:1;stroke:none;stroke-width:3.70159;stroke-linejoin:bevel"
       d="m 93.426782,132.47219 c -0.63197,0 -1.158439,0.20303 -1.579749,0.60926 -0.421317,0.39121 -0.632003,1.01561 -0.632003,1.87327 0,0.84263 0.210686,1.47468 0.632003,1.89601 0.42131,0.40628 0.947779,0.60926 1.579749,0.60926 2.812626,0 4.890326,1.70044 6.929808,3.97186 -1.361951,-5.08287 -4.25011,-8.45876 -6.42648,-8.9085 -0.02553,-0.005 -0.503328,-0.0512 -0.503328,-0.0512 z"
       sodipodi:nodetypes="scscsccs" /></g></svg>
